sim_grf.mot
version=1
nRows=27
nColumns=19
inDegrees=no
endheader
time	ground_force_vx	ground_force_vy	ground_force_vz	ground_force_px	ground_force_py	ground_force_pz	1_ground_force_vx	1_ground_force_vy	1_ground_force_vz	1_ground_force_px	1_ground_force_py	1_ground_force_pz	ground_torque_x	ground_torque_y	ground_torque_z	1_ground_torque_x	1_ground_torque_y	1_ground_torque_z
5.000000	-0.000000	-0.000000	-0.000000	0.000000	0.000000	0.000000	-12.242100	626.648000	-0.000000	4.776150	-0.000000	-0.074951	0.000000	0.000000	0.000000	0.000000	0.000000	0.000000
5.010000	-0.000000	-0.000000	-0.000000	0.000000	0.000000	0.000000	-12.359800	615.427000	-0.000000	4.779820	-0.000000	-0.075292	0.000000	0.000000	0.000000	0.000000	0.000000	0.000000
5.020000	-0.000000	-0.000000	-0.000000	0.000000	0.000000	0.000000	-9.695540	602.918000	-0.000000	4.783640	-0.000000	-0.075645	0.000000	0.000000	0.000000	0.000000	0.000000	0.000000
5.030000	-0.000000	-0.000000	-0.000000	0.000000	0.000000	0.000000	-8.060440	589.695000	-0.000000	4.787930	-0.000000	-0.076045	0.000000	0.000000	0.000000	0.000000	0.000000	0.000000
5.040000	-0.000000	-0.000000	-0.000000	0.000000	0.000000	0.000000	-8.537410	577.642000	-0.000000	4.792610	-0.000000	-0.076482	0.000000	0.000000	0.000000	0.000000	0.000000	0.000000
5.050000	-0.000000	-0.000000	-0.000000	0.000000	0.000000	0.000000	-10.039200	567.513000	-0.000000	4.797470	-0.000000	-0.076938	0.000000	0.000000	0.000000	0.000000	0.000000	0.000000
5.060000	-0.000000	-0.000000	-0.000000	0.000000	0.000000	0.000000	35.889900	549.208000	-0.000000	4.801750	-0.000000	-0.077295	0.000000	0.000000	0.000000	0.000000	0.000000	0.000000
5.070000	-0.000000	-0.000000	-0.000000	0.000000	0.000000	0.000000	11.249700	557.226000	-0.000000	4.808270	-0.000000	-0.077939	0.000000	0.000000	0.000000	0.000000	0.000000	0.000000
5.080000	-0.000000	-0.000000	-0.000000	0.000000	0.000000	0.000000	4.178140	565.379000	-0.000000	4.812730	-0.000000	-0.078364	0.000000	0.000000	0.000000	0.000000	0.000000	0.000000
5.090000	-0.000000	-0.000000	-0.000000	0.000000	0.000000	0.000000	4.309390	576.114000	-0.000000	4.816210	-0.000000	-0.078687	0.000000	0.000000	0.000000	0.000000	0.000000	0.000000
5.100000	-0.000000	-0.000000	-0.000000	0.000000	0.000000	0.000000	7.428540	590.152000	-0.000000	4.819000	-0.000000	-0.078942	0.000000	0.000000	0.000000	0.000000	0.000000	0.000000
5.110000	-0.000000	-0.000000	-0.000000	0.000000	0.000000	0.000000	11.595500	606.786000	-0.000000	4.821370	-0.000000	-0.079158	0.000000	0.000000	0.000000	0.000000	0.000000	0.000000
5.120000	-0.000000	-0.000000	-0.000000	0.000000	0.000000	0.000000	15.988700	625.979000	-0.000000	4.823590	-0.000000	-0.079362	0.000000	0.000000	0.000000	0.000000	0.000000	0.000000
5.130000	-0.000000	-0.000000	-0.000000	0.000000	0.000000	0.000000	19.578200	646.677000	-0.000000	4.825810	-0.000000	-0.079567	0.000000	0.000000	0.000000	0.000000	0.000000	0.000000
5.140000	-0.000000	-0.000000	-0.000000	0.000000	0.000000	0.000000	22.674500	667.472000	-0.000000	4.828150	-0.000000	-0.079784	0.000000	0.000000	0.000000	0.000000	0.000000	0.000000
5.150000	-0.000000	-0.000000	-0.000000	0.000000	0.000000	0.000000	25.959700	687.173000	-0.000000	4.830760	-0.000000	-0.080027	0.000000	0.000000	0.000000	0.000000	0.000000	0.000000
5.160000	-0.000000	-0.000000	-0.000000	0.000000	0.000000	0.000000	29.210100	704.268000	-0.000000	4.833770	-0.000000	-0.080307	0.000000	0.000000	0.000000	0.000000	0.000000	0.000000
5.170000	-0.000000	-0.000000	-0.000000	0.000000	0.000000	0.000000	29.718400	717.872000	-0.000000	4.837310	-0.000000	-0.080641	0.000000	0.000000	0.000000	0.000000	0.000000	0.000000
5.180000	-0.000000	-0.000000	-0.000000	0.000000	0.000000	0.000000	27.010100	744.535000	-0.000000	4.839300	-0.000000	-0.080830	0.000000	0.000000	0.000000	0.000000	0.000000	0.000000
5.190000	-0.000000	-0.000000	-0.000000	0.000000	0.000000	0.000000	30.328700	760.338000	-0.000000	4.842100	-0.000000	-0.081089	0.000000	0.000000	0.000000	0.000000	0.000000	0.000000
5.200000	-0.000000	-0.000000	-0.000000	0.000000	0.000000	0.000000	38.722000	761.720000	-0.000000	4.846050	-0.000000	-0.081452	0.000000	0.000000	0.000000	0.000000	0.000000	0.000000
5.210000	-0.000000	-0.000000	-0.000000	0.000000	0.000000	0.000000	45.469900	753.212000	-0.000000	4.851370	-0.000000	-0.081947	0.000000	0.000000	0.000000	0.000000	0.000000	0.000000
5.220000	-0.000000	-0.000000	-0.000000	0.000000	0.000000	0.000000	50.756900	737.800000	-0.000000	4.857970	-0.000000	-0.082563	0.000000	0.000000	0.000000	0.000000	0.000000	0.000000
5.230000	-0.000000	-0.000000	-0.000000	0.000000	0.000000	0.000000	53.980900	717.540000	-0.000000	4.865510	-0.000000	-0.083268	0.000000	0.000000	0.000000	0.000000	0.000000	0.000000
5.240000	-0.000000	-0.000000	-0.000000	0.000000	0.000000	0.000000	55.618600	696.870000	-0.000000	4.873720	-0.000000	-0.084038	0.000000	0.000000	0.000000	0.000000	0.000000	0.000000
5.250000	-0.000000	-0.000000	-0.000000	0.000000	0.000000	0.000000	53.900900	677.679000	-0.000000	4.882060	-0.000000	-0.084823	0.000000	0.000000	0.000000	0.000000	0.000000	0.000000
5.260000	-0.000000	-0.000000	-0.000000	0.000000	0.000000	0.000000	52.515300	661.723000	-0.000000	4.889990	-0.000000	-0.085566	0.000000	0.000000	0.000000	0.000000	0.000000	0.000000
